<svg width="313" height="32" viewBox="0 0 313 32" fill="none" xmlns="http://www.w3.org/2000/svg">
<path d="M0.000244141 27.1028V6.00098H5.79068V16.1625L15.5251 6.00098H22.1571L12.8434 15.2581C13.5971 20.7722 15.2237 23.0645 16.3102 23.0645C17.3967 23.0645 17.9368 20.835 17.516 17.3997H22.5214C23.1243 23.3095 20.9262 27.5864 16.4923 27.5864C13.057 27.5864 10.4004 25.5076 8.83662 19.2964L5.79068 22.3109V27.1028H0.000244141ZM25.1717 27.1028H30.9621V6.00098H25.1717V27.1028ZM46.6942 22.581C50.6445 22.581 53.0248 20.2007 53.0248 16.5519C53.0248 12.903 50.6445 10.5228 46.6942 10.5228H40.9666V22.581H46.6942ZM58.8152 16.5519C58.8152 22.4302 54.0233 27.1028 47.9628 27.1028H35.1825V6.00098H47.9628C54.0233 6.00098 58.8152 10.6735 58.8152 16.5519ZM78.0769 13.9267L81.1542 10.0706C77.8382 7.53965 73.0777 5.5174 68.3424 5.5174C63.6071 5.5174 60.6867 7.8097 60.6867 10.5793C60.6867 13.3489 62.9162 15.8234 67.953 17.7263L71.6019 19.0828C73.7749 19.8993 74.9807 20.8036 74.9807 21.7959C74.9807 22.581 74.315 23.0645 73.2913 23.0645C70.126 23.0645 66.7786 21.4694 64.0969 18.5113L60.6302 22.1288C63.6761 25.3255 68.468 27.5864 73.4106 27.5864C78.3532 27.5864 81.1605 25.539 81.1605 22.2795C81.1605 19.265 79.3518 16.7026 73.0212 14.3789L68.9202 12.8716C67.4129 12.3315 66.8728 11.7286 66.8728 11.0943C66.8728 10.46 67.595 10.0392 68.7129 10.0392C71.8782 10.0392 75.2821 11.6344 78.0894 13.9267H78.0769ZM106.834 16.5519V6.00098H101.044V16.5519C101.044 20.5022 98.7516 23.0645 95.1969 23.0645C91.6423 23.0645 89.35 20.5022 89.35 16.5519V6.00098H83.5596V16.5519C83.5596 23.2467 88.1442 27.5864 95.1969 27.5864C102.25 27.5864 106.834 23.2467 106.834 16.5519ZM121.298 17.0983C124.852 17.0983 126.818 15.9176 126.818 13.8388C126.818 11.6093 124.526 10.5228 119.885 10.5228H116.537V16.464C118.045 16.8533 119.734 17.0983 121.298 17.0983ZM132.609 13.8388C132.609 18.4234 128.539 21.3123 122.089 21.3123C120.431 21.3123 118.591 21.0737 116.544 20.5901V27.1028H110.753V6.00098H121.423C128.294 6.00098 132.609 9.01552 132.609 13.8388Z" fill="#9D63EA"/>
<g clip-path="url(#clip0_477_1881)">
<path d="M191.614 14.6581L192.718 14.5577H192.731C192.771 14.812 192.798 15.073 192.825 15.3273C192.852 15.5816 192.865 15.8426 192.878 16.1036H192.865L191.761 16.204L191.774 16.6791L194.451 16.4248L194.431 15.9497L193.307 16.0567H193.3C193.287 15.7958 193.273 15.5415 193.246 15.2805C193.22 15.0262 193.193 14.7652 193.153 14.5109H193.159L194.29 14.4038L194.217 13.9354L191.54 14.1897L191.614 14.6581Z" fill="#9D63EA"/>
<path d="M172.133 6.27215L171.551 5.3152L171.832 5.14121L172.628 5.44904C173.03 5.60965 173.424 5.66318 173.705 5.34866L173.491 4.99399C173.357 5.14121 173.143 5.13452 172.836 5.02745L171.966 4.71293L172.253 3.07339L171.771 3.34777L171.564 4.78654L171.33 4.93376L170.741 3.97012L170.353 4.24449L171.751 6.53314L172.133 6.27215Z" fill="#9D63EA"/>
<path d="M177.996 2.10944L177.976 1.84845C178.022 1.84176 178.069 1.84176 178.109 1.83507C178.377 1.81499 178.645 1.80161 178.912 1.79492L179.086 4.06349L179.562 4.03003L179.388 1.80161L179.354 1.37332C179.1 1.37332 178.839 1.37332 178.585 1.38671L177.567 1.46701C177.547 1.46701 177.521 1.4737 177.5 1.4737L177.534 1.89529L177.541 2.00237C177.661 3.62182 177.42 3.81589 177.146 3.83596C177.086 3.84266 177.025 3.83596 176.992 3.82258L176.979 4.21741C177.052 4.23079 177.206 4.24417 177.313 4.23748C177.835 4.19733 178.123 3.82927 177.996 2.10944Z" fill="#9D63EA"/>
<path d="M175.372 4.7332C176.162 4.47222 176.53 3.68256 176.289 2.95983C176.048 2.22372 175.305 1.80212 174.509 2.06311C173.719 2.3241 173.351 3.11375 173.592 3.83648C173.833 4.5726 174.583 4.99419 175.372 4.7332ZM174.643 2.4847C175.158 2.3174 175.653 2.61854 175.821 3.12044C175.901 3.37473 175.888 3.63572 175.787 3.84986C175.687 4.06401 175.506 4.238 175.245 4.32499C174.73 4.49229 174.235 4.19115 174.067 3.68926C173.934 3.26766 174.074 2.84607 174.415 2.61854C174.489 2.56501 174.556 2.51147 174.643 2.4847Z" fill="#9D63EA"/>
<path d="M189.606 7.24234C190.121 6.68021 190.114 5.81026 189.499 5.24813C189.124 4.91353 188.676 4.79977 188.254 4.89346L188.361 5.36859C188.649 5.29498 188.957 5.3552 189.204 5.57604C189.546 5.89056 189.586 6.35231 189.358 6.72706C189.157 6.5196 188.95 6.31885 188.736 6.13147C188.649 6.05117 188.555 5.97086 188.468 5.89056L188.194 6.21177C188.281 6.28539 188.368 6.36569 188.455 6.4393C188.669 6.63337 188.876 6.83413 189.077 7.04158C188.722 7.30256 188.247 7.30926 187.899 6.99473C187.645 6.76721 187.558 6.45268 187.618 6.15155L187.143 6.08463C187.083 6.5196 187.23 6.98135 187.612 7.32264C188.227 7.88476 189.084 7.81115 189.606 7.24234Z" fill="#9D63EA"/>
<path d="M182.833 14.3561C183.422 13.6735 183.67 12.8437 183.67 12.0541C183.67 11.4183 183.496 10.1468 182.378 9.2702C181.608 8.67462 180.933 8.39355 179.306 8.39355H178.483C178.457 8.39355 178.436 8.39355 178.403 8.39355H175.017V24.394H184.687V21.3224C184.687 18.3847 183.736 16.4105 181.281 15.5406C182.05 15.2194 182.525 14.7308 182.833 14.3561ZM180.912 14.0483C180.471 14.597 179.755 15.1056 178.738 15.1056C178.731 15.1056 178.724 15.1056 178.718 15.1056V15.9019C181.434 15.9019 182.498 17.7088 182.498 21.0146V23.504H180.752V18.1638H178.738V23.5107H177.198V9.1899H178.784C179.38 9.1899 180.277 9.32374 180.912 10.1134C181.24 10.5149 181.448 11.0436 181.515 11.5789H178.738V12.3686H181.535C181.515 12.8772 181.408 13.446 180.912 14.0483Z" fill="#9D63EA"/>
<path d="M185.249 4.70639C185.517 4.84023 185.845 4.73316 185.979 4.46548C186.112 4.1978 186.005 3.8699 185.738 3.73606C185.47 3.60222 185.142 3.70929 185.008 3.97697C184.874 4.24464 184.982 4.57255 185.249 4.70639Z" fill="#9D63EA"/>
<path d="M181.027 3.5624C181.241 3.58917 181.449 3.62263 181.663 3.66278C181.87 3.70293 182.084 3.74977 182.292 3.79662L182.432 4.4792L182.934 4.61973L182.265 1.67527L181.83 1.60165L180.137 4.09776L180.646 4.1446L181.027 3.5624ZM181.93 2.20393L182.191 3.34826C182.037 3.3148 181.89 3.28134 181.736 3.25457C181.582 3.2278 181.435 3.20103 181.281 3.17426L181.93 2.20393Z" fill="#9D63EA"/>
<path d="M191.774 10.4481C191.051 10.7157 190.663 11.4786 190.951 12.2616C191.239 13.0445 192.048 13.3724 192.764 13.1048C193.487 12.8371 193.875 12.0742 193.588 11.2912C193.293 10.5083 192.49 10.1804 191.774 10.4481ZM193.173 11.4385C193.36 11.9404 193.086 12.4557 192.59 12.6363C192.544 12.6564 192.497 12.6497 192.457 12.6631C192.002 12.7702 191.54 12.5761 191.373 12.1144C191.252 11.7998 191.319 11.4786 191.506 11.2444C191.533 11.2043 191.573 11.1708 191.607 11.1373C191.613 11.1306 191.62 11.1173 191.627 11.1106C191.647 11.0905 191.674 11.0771 191.7 11.057C191.727 11.037 191.754 11.0169 191.781 10.9968C191.781 10.9968 191.781 10.9968 191.787 10.9968C191.841 10.9633 191.895 10.9366 191.955 10.9165C192.202 10.8228 192.463 10.8295 192.684 10.9165C192.898 11.0102 193.079 11.1842 193.173 11.4385Z" fill="#9D63EA"/>
<path d="M189.325 9.17042L190.262 8.55475L190.443 8.82912L190.162 9.63216C190.014 10.0404 189.974 10.4352 190.295 10.7096L190.643 10.482C190.496 10.3549 190.496 10.1407 190.59 9.83292L190.871 8.94958L192.517 9.1838L192.223 8.70867L190.777 8.54806L190.623 8.32054L191.567 7.69818L191.279 7.31674L189.037 8.78897L189.325 9.17042Z" fill="#9D63EA"/>
<path d="M166.298 11.9809C166.599 12.0077 166.86 11.7936 166.894 11.4924C166.92 11.1913 166.706 10.9303 166.405 10.8969C166.104 10.8701 165.843 11.0842 165.81 11.3854C165.776 11.6865 165.997 11.9475 166.298 11.9809Z" fill="#9D63EA"/>
<path d="M183.784 28.2751L182.961 30.6173L182.358 28.7368L181.897 28.8439L182.727 31.4136L183.175 31.2999L183.985 28.9777L184.587 30.8448L185.022 30.6708L184.199 28.1078L183.784 28.2751Z" fill="#9D63EA"/>
<path d="M179.233 29.9549C178.932 29.9549 178.691 30.1958 178.691 30.497C178.691 30.7981 178.932 31.039 179.233 31.039C179.535 31.039 179.776 30.7981 179.776 30.497C179.776 30.2025 179.535 29.9549 179.233 29.9549Z" fill="#9D63EA"/>
<path d="M186.394 26.8837L186.983 27.8407L186.702 28.0147L185.906 27.7135C185.504 27.5529 185.109 27.5061 184.828 27.8206L185.049 28.1753C185.183 28.0281 185.397 28.0348 185.705 28.1418L186.581 28.4497L186.307 30.0892L186.789 29.8081L186.99 28.3627L187.224 28.2154L187.819 29.1724L188.208 28.898L186.796 26.6161L186.394 26.8837Z" fill="#9D63EA"/>
<path d="M188.957 24.5012L189.398 26.9438L187.946 25.6054L187.605 25.9266L189.592 27.7535L189.927 27.4256L189.485 25.0098L190.931 26.3348L191.225 25.9735L189.238 24.1465L188.957 24.5012Z" fill="#9D63EA"/>
<path d="M193.173 17.6348C192.41 17.5009 191.687 17.9627 191.547 18.7858C191.399 19.6089 191.928 20.2982 192.684 20.432C193.447 20.5659 194.17 20.1041 194.31 19.281C194.451 18.4579 193.922 17.7619 193.173 17.6348ZM193.875 19.194C193.855 19.3278 193.802 19.4483 193.735 19.5487C193.534 19.8498 193.153 20.0037 192.765 19.9368C192.303 19.8565 191.975 19.5018 191.962 19.0602C191.962 18.9999 191.962 18.933 191.975 18.8661C191.995 18.7323 192.049 18.6118 192.115 18.5114C192.316 18.2103 192.698 18.0564 193.086 18.1233C193.614 18.217 193.969 18.6653 193.875 19.194Z" fill="#9D63EA"/>
<path d="M174.555 29.0521C174.448 29.4135 174.608 29.6477 174.883 29.8418C174.662 29.8886 174.434 30.0024 174.341 30.3169C174.287 30.4976 174.307 30.6582 174.388 30.8054C174.495 30.9995 174.702 31.1668 174.996 31.2538L175.987 31.5081L176.736 28.9183L175.719 28.6239C175.15 28.4499 174.695 28.5837 174.555 29.0521ZM175.184 30.8456C174.889 30.7586 174.762 30.5846 174.822 30.3838C174.836 30.337 174.856 30.2968 174.876 30.2634C174.95 30.163 175.063 30.1229 175.211 30.1295C175.278 30.1295 175.344 30.1429 175.418 30.163L175.86 30.2902L175.659 30.9794L175.184 30.8456ZM175.431 29.7481C175.07 29.641 174.936 29.4604 174.996 29.2395C175.05 29.0588 175.191 28.9718 175.385 28.9852C175.452 28.9852 175.525 28.9986 175.599 29.0254L176.174 29.1927L175.967 29.9087L175.431 29.7481Z" fill="#9D63EA"/>
<path d="M190.918 21.1287L191.868 21.6707C192.19 21.8514 192.571 22.0588 192.886 22.2328L192.879 22.2395C192.538 22.1592 190.557 21.9183 190.557 21.9183L190.383 22.2797C190.383 22.2797 191.748 23.7787 192.009 24.0062L192.002 24.0196C191.674 23.8523 191.286 23.685 190.965 23.5445L189.948 23.1028L189.68 23.5311L192.196 24.5817L192.538 23.9995C192.538 23.9995 191.273 22.621 191.039 22.4269L191.045 22.4135C191.346 22.4804 193.187 22.6812 193.187 22.6812L193.448 22.0455L191.092 20.6602L190.918 21.1287Z" fill="#9D63EA"/>
<path d="M167.034 19.4826L166.358 19.3153C166.311 19.1079 166.278 18.8937 166.244 18.6863C166.204 18.4788 166.178 18.2647 166.157 18.0506L166.746 17.6825L166.713 17.1605L164.17 18.7867L164.237 19.2216L167.161 19.9711L167.034 19.4826ZM165.756 18.2982C165.776 18.4521 165.796 18.606 165.823 18.7599C165.85 18.9138 165.876 19.061 165.903 19.215L164.766 18.9272L165.756 18.2982Z" fill="#9D63EA"/>
<path d="M171.986 27.8807C171.712 28.3492 171.912 28.8176 172.434 29.1321L172.803 29.353L172.307 30.1962L172.716 30.4371L174.094 28.1016L173.318 27.6331C172.776 27.3186 172.26 27.4123 171.986 27.8807ZM173.01 28.9916L172.655 28.7842C172.347 28.6035 172.247 28.3693 172.388 28.1284C172.468 27.9945 172.568 27.9209 172.689 27.9008C172.809 27.8807 172.95 27.9209 173.104 28.0079L173.465 28.222L173.01 28.9916Z" fill="#9D63EA"/>
<path d="M168.694 9.85235C169.336 8.84856 170.119 7.94514 171.016 7.16218L170.681 6.86774L168.955 5.37543C168.841 5.4825 168.721 5.58957 168.614 5.70333L170.34 7.18895C170.079 7.43655 169.832 7.69085 169.591 7.95852L167.878 6.4796C167.77 6.60006 167.67 6.72051 167.563 6.84097L169.276 8.31989C169.049 8.58757 168.834 8.86863 168.634 9.16308L166.907 7.67746C166.813 7.80461 166.726 7.93845 166.633 8.0656L168.359 9.5579L168.694 9.85235Z" fill="#9D63EA"/>
<path d="M164.846 16.2707C165.308 16.3108 165.569 16.0298 165.662 15.8089L166.137 16.2172C166.265 16.3309 166.352 16.5451 166.298 16.6923L166.706 16.6856C166.807 16.4648 166.753 16.1435 166.432 15.8759L165.796 15.3405L165.823 15.0059L166.793 15.0929L166.86 14.6111L164.177 14.3969C164.15 14.5442 164.09 15.1398 164.083 15.2201C164.016 15.9629 164.377 16.2372 164.846 16.2707ZM164.571 14.9122L165.375 14.9791L165.348 15.287C165.328 15.5613 165.167 15.7956 164.886 15.7688C164.672 15.7487 164.505 15.6216 164.531 15.2334C164.545 15.1464 164.551 15.0394 164.571 14.9122Z" fill="#9D63EA"/>
<path d="M168.895 23.6848C168.219 22.7011 167.697 21.6304 167.329 20.4927L166.927 20.6868L164.879 21.6906C164.933 21.8378 164.986 21.985 165.047 22.139L167.088 21.1285C167.215 21.4631 167.349 21.7977 167.503 22.1189L165.468 23.116C165.535 23.2632 165.609 23.4037 165.676 23.5443L167.71 22.5472C167.871 22.8617 168.045 23.1695 168.232 23.4707L166.198 24.4811C166.278 24.615 166.365 24.7488 166.452 24.8827L168.5 23.8789L168.895 23.6848Z" fill="#9D63EA"/>
<path d="M171.598 26.5747L170.04 28.7919L170.428 29.0652L171.987 26.8479L171.598 26.5747Z" fill="#9D63EA"/>
<path d="M170.066 25.0566C169.718 24.6819 169.257 24.5413 168.828 24.6016L168.895 25.0767C169.196 25.0165 169.511 25.0968 169.738 25.3511C170.107 25.7459 170.046 26.3281 169.658 26.6828C169.263 27.0441 168.695 27.0642 168.326 26.6694C168.099 26.4285 168.039 26.114 168.112 25.8262L167.637 25.7258C167.55 26.1407 167.664 26.5958 167.999 26.9571C168.567 27.5661 169.437 27.5661 169.993 27.0508C170.562 26.5222 170.629 25.6723 170.066 25.0566Z" fill="#9D63EA"/>
</g>
<g clip-path="url(#clip1_477_1881)">
<path d="M212.543 1.18539C210.59 1.18539 208.716 1.99703 207.335 3.44176C205.954 4.88648 205.178 6.84595 205.178 8.8891V24.2965C205.178 26.3397 205.954 28.2991 207.335 29.7438C208.716 31.1886 210.59 32.0002 212.543 32.0002H227.271C229.224 32.0002 231.097 31.1886 232.478 29.7438C233.859 28.2991 234.635 26.3397 234.635 24.2965V1.18539H212.543Z" fill="#F2E9FF"/>
<path d="M229.521 12.7375H225.986L222.618 16.5924V8.88874H219.89V10.7662C219.802 10.6452 219.706 10.5263 219.602 10.4095C219.044 9.83579 218.377 9.39075 217.645 9.10298C216.912 8.8152 216.13 8.69106 215.349 8.73854C214.599 8.70242 213.852 8.84928 213.165 9.16752C212.479 9.48576 211.873 9.96665 211.395 10.5722C211.008 11.0675 210.728 11.6441 210.573 12.2629C210.418 12.8816 210.392 13.528 210.497 14.158C211.132 17.1244 213.764 17.6 215.696 17.8628C217.222 18.0693 218.687 18.3635 218.645 19.7841C218.603 21.2046 217.012 21.6114 215.947 21.6114C213.225 21.6114 213.136 19.5087 213.136 19.5087H210.228C210.279 20.663 210.7 21.7656 211.425 22.6378C212.442 23.833 213.967 24.4338 215.959 24.4338C217.392 24.4677 218.787 23.9537 219.884 22.9882V24.2398H222.612V20.6414L223.581 19.54L226.338 24.2774H229.515L225.519 17.3372L229.521 12.7375ZM213.231 13.4884C212.992 12.387 214.039 11.4107 215.403 11.4107C216.599 11.4107 217.85 11.6986 218.316 13.4884H219.89V16.2044C217.933 14.5273 213.686 15.5786 213.231 13.4884Z" fill="#9D63EA"/>
<path d="M246.947 15.7854C246.859 15.6343 246.761 15.49 246.654 15.3536C246.524 15.2086 246.375 15.0842 246.211 14.9844C246.024 14.8673 245.823 14.7768 245.613 14.7153C245.333 14.6419 245.046 14.6082 244.757 14.6152C244.595 14.6184 244.433 14.6351 244.273 14.6652C244.068 14.7151 243.868 14.7842 243.675 14.8717C243.461 14.9926 243.26 15.1373 243.076 15.3035C242.869 15.5028 242.699 15.7404 242.574 16.0044C242.395 16.341 242.266 16.7039 242.191 17.0808C242.093 17.5684 242.047 18.0658 242.053 18.564C242.046 19.125 242.108 19.6845 242.239 20.2287C242.342 20.6765 242.522 21.1008 242.771 21.4803C242.991 21.8057 243.285 22.0682 243.627 22.2438C243.97 22.4307 244.353 22.5253 244.739 22.5191C245.149 22.5352 245.557 22.4583 245.936 22.2938C246.216 22.1562 246.466 21.9603 246.672 21.7181C246.839 21.5084 246.969 21.2689 247.055 21.0109C247.144 20.7731 247.222 20.5478 247.27 20.3851H249.543C249.453 21.0434 249.25 21.6793 248.945 22.2625C248.677 22.7665 248.32 23.2124 247.892 23.5767C247.464 23.9242 246.977 24.1833 246.456 24.3402C245.2 24.7346 243.853 24.6729 242.634 24.165C242.032 23.8931 241.497 23.4799 241.072 22.9572C240.629 22.393 240.297 21.742 240.097 21.0422C239.861 20.2314 239.747 19.3866 239.762 18.539C239.753 17.8946 239.82 17.2515 239.96 16.624C240.066 16.0975 240.239 15.5881 240.474 15.1095C240.697 14.6874 240.975 14.2998 241.3 13.9581C241.6 13.6401 241.945 13.3721 242.323 13.1633C242.692 12.9551 243.084 12.7934 243.489 12.6814C243.894 12.5872 244.307 12.5389 244.722 12.5375C245.258 12.5285 245.793 12.5937 246.313 12.7315C246.732 12.8522 247.134 13.0289 247.509 13.2571C247.841 13.4595 248.141 13.7126 248.401 14.0081C248.626 14.2749 248.827 14.5641 248.999 14.8717C249.137 15.16 249.253 15.4592 249.346 15.7666C249.42 16.0382 249.466 16.3172 249.483 16.599H247.234L247.126 16.2047C247.079 16.0595 247.019 15.9191 246.947 15.7854Z" fill="#9D63EA"/>
<path d="M255.633 15.7978H258.421L255.083 19.3336L258.576 24.3025H255.83L253.437 20.7041L252.582 21.6178V24.3025H250.482V15.7978H252.588V19.0269L255.633 15.7978Z" fill="#9D63EA"/>
<path d="M258.48 18.245C258.651 17.7151 258.933 17.2319 259.306 16.8307C259.674 16.4276 260.121 16.1118 260.616 15.9045C261.165 15.6727 261.753 15.5578 262.345 15.5665C262.947 15.5561 263.545 15.671 264.104 15.9045C264.596 16.1104 265.039 16.4265 265.402 16.8307C265.76 17.2524 266.04 17.7406 266.227 18.27C266.594 19.4431 266.594 20.7079 266.227 21.8809C266.042 22.4111 265.762 22.8996 265.402 23.3203C265.034 23.7185 264.592 24.0337 264.104 24.2465C263.545 24.48 262.947 24.5949 262.345 24.5844C261.753 24.5932 261.165 24.4783 260.616 24.2465C260.125 24.0323 259.679 23.7174 259.306 23.3203C258.925 22.8992 258.642 22.3916 258.48 21.8371C258.09 20.6682 258.09 19.3952 258.48 18.2262V18.245ZM260.496 20.9923C260.543 21.2943 260.652 21.5823 260.813 21.8371C260.96 22.0942 261.166 22.3092 261.412 22.4629C261.693 22.618 262.009 22.6935 262.327 22.682C262.661 22.6979 262.993 22.6224 263.29 22.4629C263.531 22.3161 263.736 22.1125 263.888 21.8684C264.045 21.6154 264.153 21.3326 264.205 21.0361C264.333 20.3942 264.333 19.7317 264.205 19.0898C264.152 18.7878 264.044 18.499 263.888 18.2387C263.724 17.973 263.493 17.7595 263.221 17.6215C262.949 17.4836 262.646 17.4265 262.345 17.4565C262.027 17.445 261.711 17.5205 261.43 17.6755C261.185 17.8313 260.98 18.0458 260.831 18.3013C260.664 18.5553 260.55 18.8431 260.496 19.1462C260.431 19.463 260.395 19.7858 260.389 20.1099C260.397 20.407 260.434 20.7025 260.496 20.9923Z" fill="#9D63EA"/>
<path d="M270.475 17.587L270.445 19.1703C270.409 20.0652 270.349 20.8475 270.272 21.5234C270.205 22.099 270.067 22.6629 269.859 23.2005C269.69 23.6065 269.422 23.9585 269.081 24.2206C268.706 24.4604 268.271 24.578 267.831 24.5585C267.586 24.5585 267.388 24.5585 267.233 24.5273C267.081 24.5015 266.932 24.4574 266.79 24.3958V22.5184L267.065 22.6123C267.193 22.6236 267.321 22.6236 267.448 22.6123C267.604 22.62 267.756 22.5639 267.873 22.4558C268.03 22.3119 268.142 22.1223 268.196 21.9114C268.302 21.5461 268.374 21.171 268.411 20.7912C268.453 20.3156 268.483 19.7085 268.501 18.9576L268.561 15.7409H275.099V24.302H273.012V17.587H270.475Z" fill="#9D63EA"/>
<path d="M281.752 15.7978H284.564L281.208 19.3336L284.707 24.3025H281.961L279.568 20.7041L278.713 21.6178V24.3025H276.607V15.7978H278.713V19.0269L281.752 15.7978Z" fill="#9D63EA"/>
<path d="M284.605 18.2456C284.778 17.7093 285.06 17.2183 285.431 16.8062C285.803 16.4043 286.251 16.0888 286.747 15.88C287.296 15.6477 287.884 15.5328 288.476 15.5421C289.076 15.5317 289.672 15.6465 290.229 15.88C290.725 16.0901 291.169 16.4153 291.527 16.8313C291.89 17.2497 292.17 17.7388 292.352 18.2706C292.719 19.4437 292.719 20.7085 292.352 21.8815C292.171 22.414 291.891 22.9033 291.527 23.3209C291.161 23.7219 290.719 24.0375 290.229 24.2471C289.672 24.4806 289.076 24.5955 288.476 24.585C287.884 24.5943 287.296 24.4794 286.747 24.2471C286.255 24.0314 285.807 23.7167 285.431 23.3209C285.059 22.9099 284.777 22.4186 284.605 21.8815C284.222 20.7112 284.222 19.4409 284.605 18.2706V18.2456ZM286.627 20.9929C286.679 21.2985 286.793 21.5889 286.962 21.844C287.109 22.1015 287.314 22.3167 287.56 22.4698C287.844 22.6248 288.162 22.7002 288.482 22.6888C288.81 22.7015 289.135 22.6261 289.427 22.4698C289.668 22.3229 289.873 22.1194 290.025 21.8753C290.182 21.6222 290.29 21.3394 290.342 21.043C290.47 20.4011 290.47 19.7386 290.342 19.0967C290.289 18.7946 290.181 18.5059 290.025 18.2456C289.861 17.9777 289.63 17.7623 289.357 17.6231C289.083 17.484 288.778 17.4265 288.476 17.4571C288.156 17.4457 287.838 17.5211 287.555 17.6761C287.31 17.8319 287.105 18.0464 286.956 18.3019C286.789 18.5559 286.675 18.8437 286.621 19.1468C286.553 19.4631 286.517 19.7862 286.514 20.1105C286.522 20.408 286.56 20.7038 286.627 20.9929Z" fill="#9D63EA"/>
<path d="M298.903 15.8981C299.223 15.9655 299.532 16.0837 299.818 16.2486C300.081 16.4178 300.297 16.6549 300.446 16.937C300.612 17.2774 300.69 17.6569 300.674 18.0384C300.681 18.2497 300.657 18.4609 300.602 18.6642C300.561 18.8379 300.487 19.0016 300.386 19.1461C300.306 19.2777 300.202 19.3923 300.081 19.484C299.966 19.5772 299.842 19.657 299.71 19.7218C300.092 19.8408 300.422 20.0953 300.644 20.4415C300.864 20.7919 300.977 21.2047 300.967 21.6243C300.973 21.9964 300.91 22.3663 300.781 22.7132C300.654 23.0286 300.462 23.3107 300.219 23.5393C299.965 23.7856 299.663 23.9714 299.334 24.0837C298.96 24.2179 298.568 24.2835 298.173 24.2777H293.615V15.798H297.802C298.171 15.7946 298.54 15.8281 298.903 15.8981ZM297.958 19.0772C298.088 19.0416 298.212 18.9823 298.323 18.902C298.416 18.8356 298.485 18.7388 298.52 18.6267C298.565 18.4987 298.586 18.3625 298.58 18.2261C298.584 18.1062 298.564 17.9866 298.52 17.8757C298.477 17.7699 298.409 17.6773 298.323 17.6066C298.217 17.525 298.097 17.4655 297.97 17.4314C297.787 17.3789 297.597 17.3557 297.407 17.3625H295.726V19.1398H297.347C297.552 19.1383 297.756 19.1173 297.958 19.0772ZM298.095 22.6381C298.253 22.5804 298.398 22.4888 298.52 22.369C298.616 22.2792 298.685 22.1616 298.717 22.0311C298.75 21.9174 298.766 21.7993 298.765 21.6806C298.776 21.5016 298.749 21.3223 298.687 21.1549C298.645 21.021 298.558 20.9076 298.442 20.8358C298.314 20.7337 298.16 20.6728 297.999 20.6605C297.784 20.6252 297.566 20.6085 297.347 20.6105H295.726V22.7382H297.347C297.6 22.7474 297.853 22.7135 298.095 22.6381Z" fill="#9D63EA"/>
<path d="M301.822 18.2456C301.992 17.7112 302.272 17.2224 302.642 16.8136C303.012 16.4048 303.463 16.0861 303.964 15.88C304.511 15.6477 305.097 15.5328 305.687 15.5421C306.289 15.5317 306.887 15.6465 307.446 15.88C307.941 16.092 308.384 16.417 308.744 16.8313C309.107 17.2497 309.387 17.7388 309.569 18.2706C309.936 19.4437 309.936 20.7085 309.569 21.8815C309.389 22.414 309.108 22.9033 308.744 23.3209C308.384 23.7079 307.952 24.0145 307.476 24.2221C306.917 24.4556 306.319 24.5704 305.717 24.56C305.127 24.5693 304.541 24.4544 303.994 24.2221C303.501 24.008 303.053 23.6931 302.678 23.2959C302.306 22.8848 302.024 22.3936 301.852 21.8565C301.462 20.6876 301.462 19.4145 301.852 18.2456H301.822ZM303.838 20.9929C303.89 21.2985 304.004 21.5889 304.173 21.844C304.32 22.101 304.526 22.316 304.772 22.4698C305.054 22.624 305.369 22.6994 305.687 22.6888C306.015 22.702 306.34 22.6266 306.632 22.4698C306.874 22.3241 307.079 22.1203 307.23 21.8753C307.392 21.624 307.502 21.3407 307.553 21.043C307.673 20.4002 307.673 19.7394 307.553 19.0967C307.501 18.7935 307.391 18.5042 307.23 18.2456C307.075 18.0053 306.871 17.8044 306.632 17.6573C306.337 17.5062 306.009 17.4373 305.681 17.4571C305.363 17.4465 305.048 17.5219 304.766 17.6761C304.522 17.8319 304.316 18.0464 304.168 18.3019C304.001 18.5559 303.886 18.8437 303.833 19.1468C303.767 19.4636 303.731 19.7864 303.725 20.1105C303.736 20.4078 303.774 20.7032 303.838 20.9929Z" fill="#9D63EA"/>
</g>
<path d="M143.125 10.2542L155.035 22.6205" stroke="#9D63EA" stroke-width="1.65517"/>
<path d="M155.034 10.4828L143.125 22.8492" stroke="#9D63EA" stroke-width="1.65517"/>
<defs>
<clipPath id="clip0_477_1881">
<rect width="32" height="32" fill="white" transform="translate(163.31)"/>
</clipPath>
<clipPath id="clip1_477_1881">
<rect width="109.913" height="32" fill="white" transform="translate(202.555)"/>
</clipPath>
</defs>
</svg>
