<svg width="200" height="88" viewBox="0 0 200 88" fill="none" xmlns="http://www.w3.org/2000/svg">
<path d="M0 32.2769V0.723108H8.73313V15.9178L23.4146 0.723108H33.417L19.3701 14.5655C20.5068 22.8108 22.96 26.2385 24.5986 26.2385C26.2373 26.2385 27.0519 22.9047 26.4172 17.7678H33.9664C34.8757 26.6047 31.5605 33 24.8733 33C19.6922 33 15.6855 29.8916 13.327 20.6039L8.73313 25.1116V32.2769H0ZM37.9635 32.2769H46.6967V0.723108H37.9635V32.2769ZM70.4239 25.5154C76.3817 25.5154 79.9716 21.9562 79.9716 16.5C79.9716 11.0438 76.3817 7.48463 70.4239 7.48463H61.7855V25.5154H70.4239ZM88.7047 16.5C88.7047 25.29 81.4776 32.2769 72.3372 32.2769H53.0618V0.723108H72.3372C81.4776 0.723108 88.7047 7.71002 88.7047 16.5ZM117.755 12.5746L122.396 6.80848C117.395 3.0239 110.215 0 103.074 0C95.9318 0 91.5274 3.42772 91.5274 7.56915C91.5274 11.7106 94.8899 15.4106 102.486 18.2561L107.99 20.2846C111.267 21.5054 113.085 22.8577 113.085 24.3415C113.085 25.5154 112.081 26.2385 110.538 26.2385C105.764 26.2385 100.715 23.8532 96.6706 19.43L91.4421 24.8392C96.036 29.6192 103.263 33 110.718 33C118.172 33 122.406 29.9385 122.406 25.0646C122.406 20.5569 119.678 16.7254 110.13 13.2507L103.945 10.9969C101.672 10.1892 100.857 9.28771 100.857 8.33922C100.857 7.39072 101.946 6.76153 103.632 6.76153C108.406 6.76153 113.54 9.14684 117.774 12.5746H117.755ZM161.127 16.5V0.723108H152.394V16.5C152.394 22.4069 148.937 26.2385 143.576 26.2385C138.215 26.2385 134.757 22.4069 134.757 16.5V0.723108H126.024V16.5C126.024 26.5108 132.939 33 143.576 33C154.213 33 161.127 26.5108 161.127 16.5ZM182.941 17.317C188.302 17.317 191.267 15.5515 191.267 12.4431C191.267 9.10928 187.81 7.48463 180.81 7.48463H175.761V16.3685C178.035 16.9508 180.583 17.317 182.941 17.317ZM200 12.4431C200 19.2985 193.862 23.6184 184.135 23.6184C181.634 23.6184 178.859 23.2615 175.771 22.5384V32.2769H167.038V0.723108H183.13C193.493 0.723108 200 5.23079 200 12.4431Z" fill="#9D63EA"/>
<g clip-path="url(#clip0_2007_119)">
<path d="M37.9512 63.9417L39.4318 63.8071H39.4497C39.5036 64.1481 39.5395 64.4981 39.5754 64.839C39.6112 65.18 39.6292 65.53 39.6471 65.8799H39.6292L38.1486 66.0145L38.1666 66.6516L41.7558 66.3106L41.7289 65.6735L40.2214 65.8171H40.2124C40.1945 65.4671 40.1765 65.1262 40.1407 64.7762C40.1048 64.4353 40.0689 64.0853 40.015 63.7443H40.024L41.5404 63.6008L41.4417 62.9727L37.8525 63.3136L37.9512 63.9417Z" fill="#9D63EA"/>
<path d="M11.8302 52.6983L11.0495 51.4151L11.4264 51.1818L12.4942 51.5946C13.0326 51.8099 13.562 51.8817 13.9388 51.46L13.6517 50.9844C13.4722 51.1818 13.1851 51.1729 12.7723 51.0293L11.6059 50.6076L11.9917 48.4092L11.3456 48.7771L11.0675 50.7063L10.7534 50.9037L9.96379 49.6116L9.44336 49.9795L11.3187 53.0482L11.8302 52.6983Z" fill="#9D63EA"/>
<path d="M19.691 47.1159L19.6641 46.766C19.7269 46.757 19.7897 46.757 19.8436 46.748C20.2025 46.7211 20.5614 46.7032 20.9203 46.6942L21.1536 49.7361L21.7907 49.6912L21.5574 46.7032L21.5126 46.1289C21.1716 46.1289 20.8216 46.1289 20.4807 46.1469L19.1168 46.2545C19.0899 46.2545 19.054 46.2635 19.027 46.2635L19.0719 46.8288L19.0809 46.9724C19.2424 49.1438 18.9194 49.4041 18.5515 49.431C18.4707 49.4399 18.39 49.431 18.3451 49.413L18.3271 49.9424C18.4259 49.9604 18.6322 49.9783 18.7758 49.9693C19.4757 49.9155 19.8615 49.422 19.691 47.1159Z" fill="#9D63EA"/>
<path d="M16.1732 50.634C17.232 50.2841 17.7255 49.2253 17.4025 48.2562C17.0794 47.2692 16.0834 46.7039 15.0157 47.0538C13.9568 47.4038 13.4633 48.4626 13.7864 49.4317C14.1094 50.4187 15.1144 50.984 16.1732 50.634ZM15.1951 47.6191C15.886 47.3948 16.55 47.7986 16.7744 48.4715C16.882 48.8125 16.8641 49.1625 16.7295 49.4496C16.5949 49.7367 16.3526 49.97 16.0027 50.0867C15.3118 50.311 14.6478 49.9072 14.4234 49.2342C14.244 48.6689 14.4324 48.1036 14.89 47.7986C14.9887 47.7268 15.0785 47.655 15.1951 47.6191Z" fill="#9D63EA"/>
<path d="M35.259 53.998C35.9499 53.2443 35.9409 52.0778 35.1154 51.3241C34.6129 50.8754 34.0117 50.7229 33.4464 50.8485L33.59 51.4856C33.9759 51.3869 34.3886 51.4676 34.7206 51.7637C35.1782 52.1855 35.2321 52.8046 34.927 53.3071C34.6578 53.0289 34.3796 52.7597 34.0925 52.5085C33.9759 52.4008 33.8502 52.2931 33.7336 52.1855L33.3657 52.6162C33.4823 52.7149 33.599 52.8226 33.7156 52.9213C34.0028 53.1815 34.2809 53.4507 34.5501 53.7288C34.0746 54.0788 33.4375 54.0877 32.9709 53.666C32.6299 53.3609 32.5133 52.9392 32.594 52.5354L31.9569 52.4457C31.8762 53.0289 32.0736 53.6481 32.585 54.1057C33.4106 54.8594 34.5591 54.7607 35.259 53.998Z" fill="#9D63EA"/>
<path d="M26.1777 63.5364C26.9674 62.6212 27.2994 61.5085 27.2994 60.4497C27.2994 59.5973 27.0661 57.8924 25.5676 56.717C24.5357 55.9184 23.6294 55.5415 21.449 55.5415H20.3453C20.3094 55.5415 20.2825 55.5415 20.2376 55.5415H15.6973V76.9959H28.6632V72.8773C28.6632 68.9382 27.3891 66.2912 24.096 65.1247C25.1279 64.694 25.765 64.0389 26.1777 63.5364ZM23.6025 63.1237C23.0103 63.8595 22.0501 64.5414 20.6863 64.5414C20.6773 64.5414 20.6683 64.5414 20.6593 64.5414V65.6092C24.3024 65.6092 25.7291 68.0319 25.7291 72.4646V75.8025H23.3871V68.6421H20.6863V75.8115H18.6225V56.6093H20.7491C21.5477 56.6093 22.75 56.7888 23.6025 57.8476C24.0422 58.3859 24.3203 59.0948 24.41 59.8127H20.6863V60.8715H24.437C24.41 61.5534 24.2665 62.3161 23.6025 63.1237Z" fill="#9D63EA"/>
<path d="M29.4169 50.5981C29.7758 50.7775 30.2155 50.634 30.3949 50.275C30.5744 49.9161 30.4308 49.4764 30.0719 49.297C29.713 49.1175 29.2733 49.2611 29.0939 49.62C28.9144 49.9789 29.058 50.4186 29.4169 50.5981Z" fill="#9D63EA"/>
<path d="M23.7559 49.0637C24.043 49.0996 24.3212 49.1444 24.6083 49.1983C24.8865 49.2521 25.1736 49.3149 25.4518 49.3777L25.6402 50.293L26.3132 50.4814L25.4159 46.5333L24.8327 46.4346L22.5625 49.7815L23.2444 49.8443L23.7559 49.0637ZM24.9673 47.2421L25.3172 48.7765C25.1108 48.7317 24.9134 48.6868 24.707 48.6509C24.5007 48.615 24.3033 48.5791 24.0969 48.5432L24.9673 47.2421Z" fill="#9D63EA"/>
<path d="M38.1663 58.297C37.1972 58.656 36.6767 59.6789 37.0626 60.7287C37.4484 61.7786 38.5342 62.2182 39.4943 61.8593C40.4634 61.5004 40.9838 60.4775 40.5979 59.4276C40.2031 58.3778 39.1264 57.9381 38.1663 58.297ZM40.0416 59.625C40.2929 60.298 39.925 60.9889 39.261 61.2312C39.1982 61.2581 39.1353 61.2492 39.0815 61.2671C38.4713 61.4107 37.8522 61.1505 37.6279 60.5313C37.4664 60.1096 37.5561 59.6789 37.8073 59.3648C37.8432 59.311 37.8971 59.2661 37.9419 59.2213C37.9509 59.2123 37.9599 59.1943 37.9689 59.1854C37.9958 59.1584 38.0317 59.1405 38.0676 59.1136C38.1035 59.0867 38.1393 59.0597 38.1752 59.0328C38.1752 59.0328 38.1752 59.0328 38.1842 59.0328C38.256 58.988 38.3278 58.9521 38.4085 58.9252C38.7405 58.7995 39.0905 58.8085 39.3866 58.9252C39.6737 59.0508 39.916 59.2841 40.0416 59.625Z" fill="#9D63EA"/>
<path d="M34.8819 56.5827L36.1382 55.7572L36.3804 56.1251L36.0036 57.2018C35.8062 57.7492 35.7523 58.2786 36.183 58.6465L36.6496 58.3414C36.4522 58.1709 36.4522 57.8838 36.5778 57.471L36.9547 56.2866L39.1621 56.6006L38.7672 55.9636L36.8291 55.7482L36.6227 55.4431L37.8879 54.6086L37.502 54.0972L34.4961 56.0712L34.8819 56.5827Z" fill="#9D63EA"/>
<path d="M4.0062 60.3517C4.40999 60.3876 4.75994 60.1004 4.8048 59.6966C4.84069 59.2929 4.55356 58.9429 4.14977 58.898C3.74599 58.8622 3.39604 59.1493 3.35118 59.5531C3.30631 59.9569 3.60242 60.3068 4.0062 60.3517Z" fill="#9D63EA"/>
<path d="M27.4523 82.2014L26.3486 85.3419L25.541 82.8205L24.9219 82.9641L26.0345 86.4097L26.6357 86.2572L27.7214 83.1435L28.529 85.647L29.1123 85.4137L28.0086 81.9771L27.4523 82.2014Z" fill="#9D63EA"/>
<path d="M21.3518 84.4526C20.948 84.4526 20.625 84.7757 20.625 85.1794C20.625 85.5832 20.948 85.9063 21.3518 85.9063C21.7556 85.9063 22.0786 85.5832 22.0786 85.1794C22.0786 84.7846 21.7556 84.4526 21.3518 84.4526Z" fill="#9D63EA"/>
<path d="M30.9522 80.334L31.7418 81.6172L31.365 81.8505L30.2972 81.4467C29.7588 81.2313 29.2294 81.1685 28.8525 81.5902L29.1486 82.0658C29.3281 81.8684 29.6152 81.8774 30.028 82.0209L31.2035 82.4337L30.8356 84.6321L31.4816 84.2552L31.7508 82.3171L32.0649 82.1196L32.8635 83.4028L33.3839 83.0349L31.4906 79.9751L30.9522 80.334Z" fill="#9D63EA"/>
<path d="M34.3887 77.1406L34.9809 80.4158L33.0338 78.6212L32.5762 79.0519L35.2412 81.5015L35.6898 81.0618L35.0976 77.8226L37.0358 79.5992L37.4306 79.1147L34.7656 76.665L34.3887 77.1406Z" fill="#9D63EA"/>
<path d="M40.0416 67.9331C39.0187 67.7536 38.0496 68.3727 37.8612 69.4764C37.6638 70.5801 38.3727 71.5043 39.3866 71.6838C40.4095 71.8632 41.3786 71.2441 41.567 70.1404C41.7555 69.0367 41.0466 68.1035 40.0416 67.9331ZM40.9838 70.0238C40.9569 70.2032 40.8851 70.3647 40.7954 70.4993C40.5262 70.9031 40.0147 71.1095 39.4943 71.0198C38.8751 70.9121 38.4355 70.4365 38.4175 69.8443C38.4175 69.7635 38.4175 69.6738 38.4355 69.5841C38.4624 69.4046 38.5342 69.2431 38.6239 69.1085C38.8931 68.7047 39.4046 68.4984 39.925 68.5881C40.6339 68.7137 41.1094 69.3149 40.9838 70.0238Z" fill="#9D63EA"/>
<path d="M15.0782 83.2417C14.9346 83.7263 15.15 84.0403 15.5179 84.3005C15.2217 84.3633 14.9167 84.5159 14.791 84.9376C14.7193 85.1799 14.7462 85.3952 14.8539 85.5926C14.9974 85.8529 15.2756 86.0772 15.6704 86.1938L16.9984 86.5348L18.0034 83.0622L16.6395 82.6674C15.8768 82.4341 15.2666 82.6136 15.0782 83.2417ZM15.9216 85.6465C15.5268 85.5298 15.3563 85.2965 15.4371 85.0273C15.455 84.9645 15.482 84.9107 15.5089 84.8658C15.6076 84.7312 15.7601 84.6774 15.9575 84.6864C16.0473 84.6864 16.137 84.7043 16.2357 84.7312L16.8279 84.9017L16.5587 85.8259L15.9216 85.6465ZM16.2536 84.1749C15.7691 84.0313 15.5896 83.7891 15.6704 83.493C15.7422 83.2507 15.9306 83.134 16.1908 83.152C16.2806 83.152 16.3793 83.1699 16.478 83.2058L17.2496 83.4301L16.9715 84.3903L16.2536 84.1749Z" fill="#9D63EA"/>
<path d="M37.0184 72.6174L38.2926 73.3442C38.7233 73.5865 39.2347 73.8646 39.6565 74.0979L39.6475 74.1069C39.1899 73.9992 36.5339 73.6762 36.5339 73.6762L36.3006 74.1607C36.3006 74.1607 38.1311 76.1707 38.481 76.4758L38.472 76.4937C38.0323 76.2694 37.5119 76.0451 37.0812 75.8566L35.7173 75.2644L35.3584 75.8387L38.7322 77.2474L39.1899 76.4668C39.1899 76.4668 37.494 74.6183 37.1799 74.3581L37.1889 74.3402C37.5927 74.4299 40.0602 74.6991 40.0602 74.6991L40.4102 73.8467L37.2517 71.9893L37.0184 72.6174Z" fill="#9D63EA"/>
<path d="M4.99279 70.411L4.08651 70.1867C4.0237 69.9085 3.97884 69.6214 3.93397 69.3432C3.88014 69.065 3.84424 68.7779 3.81732 68.4908L4.60695 67.9973L4.56208 67.2974L1.15234 69.4778L1.24207 70.061L5.16327 71.066L4.99279 70.411ZM3.27894 68.8228C3.30586 69.0292 3.33278 69.2355 3.36867 69.4419C3.40457 69.6483 3.44046 69.8457 3.47635 70.0521L1.95094 69.6662L3.27894 68.8228Z" fill="#9D63EA"/>
<path d="M11.6334 81.6711C11.2655 82.2992 11.5347 82.9273 12.2346 83.3491L12.7281 83.6452L12.0641 84.7758L12.6115 85.0988L14.4599 81.9672L13.4191 81.3391C12.6923 80.9174 12.0013 81.043 11.6334 81.6711ZM13.0063 83.1606L12.5307 82.8825C12.118 82.6402 11.9834 82.3261 12.1718 82.0031C12.2795 81.8237 12.4141 81.7249 12.5756 81.698C12.7371 81.6711 12.9255 81.7249 13.1319 81.8416L13.6165 82.1287L13.0063 83.1606Z" fill="#9D63EA"/>
<path d="M7.21876 57.4976C8.08017 56.1516 9.13001 54.9403 10.3324 53.8904L9.88374 53.4956L7.56871 51.4946C7.41617 51.6382 7.25465 51.7818 7.11109 51.9343L9.42612 53.9263C9.07617 54.2583 8.74417 54.5993 8.42114 54.9582L6.12406 52.9752C5.98049 53.1367 5.84589 53.2982 5.70232 53.4597L7.99941 55.4427C7.69433 55.8017 7.40719 56.1785 7.138 56.5733L4.82297 54.5813C4.69735 54.7518 4.5807 54.9313 4.45508 55.1018L6.77011 57.1028L7.21876 57.4976Z" fill="#9D63EA"/>
<path d="M2.05904 66.1033C2.67818 66.1571 3.02813 65.7802 3.15375 65.4841L3.79083 66.0315C3.96132 66.184 4.07797 66.4712 4.00618 66.6686L4.55354 66.6596C4.68813 66.3635 4.61635 65.9328 4.18564 65.5739L3.33321 64.856L3.3691 64.4074L4.67018 64.524L4.75991 63.878L1.16174 63.5908C1.12585 63.7882 1.04509 64.5868 1.03612 64.6945C0.946391 65.6905 1.43093 66.0584 2.05904 66.1033ZM1.69115 64.2817L2.76791 64.3715L2.73202 64.7842C2.7051 65.1521 2.48975 65.4662 2.11288 65.4303C1.82574 65.4034 1.60142 65.2329 1.63731 64.7124C1.65526 64.5958 1.66423 64.4522 1.69115 64.2817Z" fill="#9D63EA"/>
<path d="M7.48829 76.0457C6.58202 74.7267 5.88212 73.291 5.38861 71.7656L4.85023 72.0258L2.10449 73.3718C2.17628 73.5692 2.24806 73.7666 2.32882 73.973L5.06558 72.6181C5.23607 73.0667 5.41553 73.5154 5.62191 73.9461L2.89412 75.283C2.98385 75.4804 3.08255 75.6689 3.17228 75.8573L5.90007 74.5203C6.11542 74.9421 6.34872 75.3548 6.59996 75.7586L3.87217 77.1135C3.97985 77.293 4.0965 77.4725 4.21315 77.6519L6.95888 76.306L7.48829 76.0457Z" fill="#9D63EA"/>
<path d="M11.1134 79.9205L9.02344 82.8936L9.54463 83.2599L11.6346 80.2869L11.1134 79.9205Z" fill="#9D63EA"/>
<path d="M9.05851 77.8845C8.59192 77.382 7.97278 77.1936 7.39851 77.2744L7.48824 77.9115C7.89202 77.8307 8.31375 77.9384 8.61884 78.2793C9.11235 78.8088 9.03159 79.5894 8.51116 80.065C7.98175 80.5495 7.21905 80.5764 6.72553 80.047C6.42045 79.724 6.33969 79.3023 6.4384 78.9164L5.80131 78.7818C5.68466 79.3382 5.83721 79.9483 6.28586 80.4329C7.04856 81.2494 8.21505 81.2494 8.95981 80.5585C9.72251 79.8496 9.81224 78.71 9.05851 77.8845Z" fill="#9D63EA"/>
</g>
<g clip-path="url(#clip1_2007_119)">
<path d="M66.014 45.8774C63.3951 45.8774 60.8836 46.9657 59.0318 48.9029C57.18 50.8401 56.1396 53.4675 56.1396 56.207V76.8663C56.1396 79.6058 57.18 82.2332 59.0318 84.1704C60.8836 86.1076 63.3951 87.1959 66.014 87.1959H85.7626C88.3814 87.1959 90.893 86.1076 92.7448 84.1704C94.5965 82.2332 95.6369 79.6058 95.6369 76.8663V45.8774H66.014Z" fill="#9D63EA"/>
<path d="M88.7791 61.3664H84.0384L79.5224 66.5354V56.2058H75.8647V58.7232C75.747 58.561 75.6187 58.4015 75.4796 58.2449C74.7312 57.4757 73.837 56.879 72.8548 56.4931C71.8725 56.1072 70.8239 55.9408 69.7764 56.0045C68.7709 55.956 67.7684 56.1529 66.8482 56.5796C65.928 57.0064 65.1153 57.6512 64.4743 58.4631C63.9556 59.1272 63.5797 59.9004 63.3721 60.7301C63.1645 61.5597 63.13 62.4264 63.2711 63.2713C64.1214 67.2487 67.6508 67.8864 70.2417 68.2389C72.2871 68.5158 74.2524 68.9102 74.1962 70.815C74.1401 72.7198 72.0064 73.2652 70.5786 73.2652C66.9289 73.2652 66.8085 70.4458 66.8085 70.4458H62.9102C62.9775 71.9935 63.5429 73.472 64.5144 74.6414C65.8781 76.2441 67.9235 77.0497 70.5946 77.0497C72.5157 77.0951 74.3867 76.4059 75.8566 75.1113V76.7895H79.5144V71.9646L80.8139 70.4877L84.5117 76.8399H88.7711L83.4128 67.534L88.7791 61.3664ZM66.9369 62.3734C66.616 60.8965 68.0198 59.5875 69.8486 59.5875C71.4529 59.5875 73.1294 59.9735 73.755 62.3734H75.8647V66.0152C73.2417 63.7663 67.5465 65.1761 66.9369 62.3734Z" fill="#F2EAFE"/>
<path d="M112.145 65.4533C112.028 65.2507 111.896 65.0572 111.752 64.8743C111.578 64.6799 111.378 64.5131 111.159 64.3792C110.908 64.2222 110.638 64.1009 110.356 64.0184C109.982 63.92 109.596 63.8749 109.209 63.8842C108.991 63.8885 108.774 63.9109 108.56 63.9513C108.285 64.0182 108.016 64.1109 107.757 64.2282C107.471 64.3902 107.202 64.5843 106.955 64.8072C106.677 65.0744 106.449 65.393 106.282 65.747C106.042 66.1983 105.869 66.6849 105.768 67.1903C105.637 67.8441 105.575 68.511 105.584 69.179C105.574 69.9312 105.657 70.6815 105.832 71.4111C105.97 72.0116 106.212 72.5804 106.546 73.0893C106.841 73.5257 107.235 73.8777 107.693 74.1131C108.154 74.3637 108.666 74.4906 109.185 74.4823C109.735 74.5038 110.282 74.4008 110.79 74.1802C111.165 73.9956 111.501 73.7329 111.776 73.4082C112.001 73.1271 112.174 72.8058 112.29 72.46C112.41 72.1411 112.514 71.839 112.578 71.6209H115.626C115.505 72.5035 115.234 73.3561 114.824 74.1382C114.465 74.8139 113.986 75.4119 113.413 75.9004C112.839 76.3663 112.185 76.7137 111.487 76.9241C109.802 77.453 107.996 77.3702 106.362 76.6892C105.554 76.3246 104.838 75.7705 104.268 75.0697C103.674 74.3132 103.229 73.4403 102.961 72.5019C102.643 71.4148 102.492 70.282 102.511 69.1455C102.499 68.2815 102.588 67.4192 102.776 66.5777C102.919 65.8717 103.151 65.1888 103.466 64.5471C103.765 63.981 104.137 63.4614 104.573 63.0031C104.976 62.5767 105.438 62.2173 105.945 61.9374C106.44 61.6583 106.965 61.4414 107.509 61.2913C108.051 61.1649 108.605 61.1002 109.161 61.0983C109.88 61.0862 110.598 61.1737 111.295 61.3584C111.856 61.5203 112.396 61.7572 112.899 62.0633C113.343 62.3346 113.746 62.674 114.094 63.0702C114.397 63.4279 114.666 63.8158 114.896 64.2282C115.082 64.6147 115.237 65.0159 115.362 65.4281C115.461 65.7923 115.522 66.1664 115.546 66.5442H112.53L112.386 66.0155C112.322 65.8208 112.242 65.6326 112.145 65.4533Z" fill="#9D63EA"/>
<path d="M123.792 65.4692H127.53L123.054 70.2103L127.739 76.8729H124.057L120.848 72.048L119.701 73.2731V76.8729H116.886V65.4692H119.709V69.7991L123.792 65.4692Z" fill="#9D63EA"/>
<path d="M127.61 68.7515C127.839 68.041 128.217 67.3931 128.717 66.8551C129.211 66.3146 129.81 65.8912 130.473 65.6132C131.21 65.3023 131.998 65.1483 132.792 65.1601C133.599 65.1461 134.4 65.3001 135.15 65.6132C135.81 65.8893 136.404 66.3132 136.89 66.8551C137.371 67.4206 137.747 68.0751 137.997 68.7851C138.489 70.358 138.489 72.0539 137.997 73.6268C137.749 74.3377 137.373 74.9926 136.89 75.5568C136.397 76.0907 135.805 76.5134 135.15 76.7987C134.4 77.1118 133.599 77.2658 132.792 77.2518C131.998 77.2636 131.21 77.1095 130.473 76.7987C129.814 76.5115 129.217 76.0892 128.717 75.5568C128.206 74.9922 127.827 74.3115 127.61 73.5681C127.086 72.0007 127.086 70.2937 127.61 68.7263V68.7515ZM130.313 72.4352C130.376 72.8402 130.521 73.2264 130.738 73.5681C130.935 73.9127 131.211 74.201 131.54 74.4072C131.918 74.615 132.341 74.7163 132.767 74.7009C133.215 74.7222 133.66 74.621 134.059 74.4072C134.382 74.2102 134.657 73.9373 134.861 73.61C135.071 73.2707 135.216 72.8915 135.286 72.494C135.457 71.6333 135.457 70.745 135.286 69.8843C135.214 69.4793 135.07 69.0921 134.861 68.7431C134.641 68.3868 134.332 68.1005 133.967 67.9155C133.602 67.7305 133.195 67.654 132.792 67.6942C132.365 67.6788 131.942 67.78 131.564 67.9879C131.237 68.1967 130.962 68.4844 130.762 68.827C130.538 69.1676 130.385 69.5535 130.313 69.9598C130.225 70.3847 130.177 70.8175 130.169 71.2521C130.18 71.6504 130.229 72.0466 130.313 72.4352Z" fill="#9D63EA"/>
<path d="M143.693 67.8685L143.653 69.9915C143.605 71.1914 143.525 72.2403 143.42 73.1466C143.331 73.9184 143.145 74.6746 142.867 75.3954C142.641 75.9397 142.281 76.4117 141.824 76.7632C141.321 77.0847 140.737 77.2424 140.148 77.2163C139.819 77.2163 139.554 77.2163 139.346 77.1744C139.142 77.1398 138.943 77.0807 138.752 76.9981V74.4808L139.121 74.6066C139.292 74.6218 139.463 74.6218 139.634 74.6066C139.843 74.617 140.047 74.5417 140.204 74.3969C140.414 74.2038 140.565 73.9497 140.637 73.6668C140.779 73.1771 140.876 72.6741 140.926 72.1648C140.982 71.5271 141.022 70.7131 141.046 69.7062L141.126 65.3931H149.894V76.8723H147.094V67.8685H143.693Z" fill="#9D63EA"/>
<path d="M158.813 65.4692H162.583L158.083 70.2103L162.776 76.8729H159.094L155.886 72.048L154.739 73.2731V76.8729H151.915V65.4692H154.739V69.7991L158.813 65.4692Z" fill="#9D63EA"/>
<path d="M162.64 68.7528C162.872 68.0337 163.25 67.3754 163.747 66.8229C164.245 66.284 164.847 65.8608 165.512 65.581C166.248 65.2695 167.036 65.1154 167.83 65.1278C168.634 65.1138 169.433 65.2679 170.18 65.581C170.845 65.8626 171.44 66.2987 171.921 66.8564C172.407 67.4175 172.783 68.0733 173.028 68.7864C173.519 70.3593 173.519 72.0552 173.028 73.6281C172.785 74.3421 172.409 74.9982 171.921 75.5581C171.431 76.0958 170.837 76.519 170.18 76.8C169.433 77.1131 168.634 77.2671 167.83 77.2532C167.036 77.2656 166.248 77.1115 165.512 76.8C164.851 76.5108 164.252 76.0889 163.747 75.5581C163.248 75.007 162.87 74.3483 162.64 73.6281C162.127 72.0589 162.127 70.3556 162.64 68.7864V68.7528ZM165.351 72.4366C165.42 72.8464 165.574 73.2357 165.8 73.5778C165.997 73.9231 166.272 74.2116 166.602 74.4169C166.983 74.6247 167.409 74.7259 167.838 74.7106C168.277 74.7275 168.714 74.6264 169.105 74.4169C169.428 74.22 169.703 73.947 169.907 73.6198C170.117 73.2804 170.262 72.9013 170.332 72.5037C170.503 71.643 170.503 70.7547 170.332 69.894C170.261 69.489 170.116 69.1019 169.907 68.7528C169.688 68.3936 169.377 68.1048 169.011 67.9182C168.644 67.7317 168.236 67.6546 167.83 67.6955C167.401 67.6802 166.975 67.7814 166.594 67.9892C166.267 68.1981 165.992 68.4858 165.792 68.8284C165.568 69.1689 165.415 69.5549 165.343 69.9612C165.251 70.3853 165.203 70.8185 165.199 71.2534C165.21 71.6523 165.261 72.0489 165.351 72.4366Z" fill="#9D63EA"/>
<path d="M181.811 65.6038C182.24 65.6941 182.654 65.8526 183.038 66.0737C183.39 66.3006 183.68 66.6185 183.88 66.9968C184.102 67.4532 184.207 67.962 184.185 68.4736C184.195 68.7569 184.163 69.0401 184.089 69.3127C184.033 69.5457 183.935 69.7652 183.8 69.9589C183.692 70.1353 183.553 70.289 183.391 70.412C183.237 70.537 183.07 70.6439 182.894 70.7309C183.405 70.8904 183.848 71.2316 184.145 71.6959C184.441 72.1657 184.592 72.7193 184.578 73.2818C184.587 73.7808 184.502 74.2767 184.329 74.7419C184.159 75.1648 183.902 75.5431 183.575 75.8495C183.235 76.1799 182.83 76.429 182.388 76.5795C181.888 76.7595 181.361 76.8475 180.832 76.8397H174.72V65.4696H180.335C180.83 65.4649 181.324 65.5099 181.811 65.6038ZM180.543 69.8666C180.718 69.8187 180.884 69.7392 181.033 69.6316C181.157 69.5426 181.251 69.4128 181.297 69.2624C181.358 69.0908 181.385 68.9082 181.377 68.7254C181.383 68.5645 181.356 68.4042 181.297 68.2554C181.24 68.1136 181.149 67.9894 181.033 67.8946C180.891 67.7852 180.73 67.7055 180.559 67.6597C180.314 67.5894 180.06 67.5582 179.805 67.5674H177.551V69.9505H179.725C180 69.9484 180.273 69.9203 180.543 69.8666ZM180.728 74.6412C180.94 74.5639 181.134 74.441 181.297 74.2804C181.426 74.16 181.518 74.0023 181.562 73.8272C181.606 73.6748 181.627 73.5164 181.626 73.3573C181.64 73.1173 181.604 72.8769 181.522 72.6525C181.465 72.4728 181.349 72.3208 181.193 72.2245C181.021 72.0877 180.815 72.0061 180.599 71.9895C180.31 71.9422 180.018 71.9197 179.725 71.9224H177.551V74.7754H179.725C180.064 74.7877 180.403 74.7423 180.728 74.6412Z" fill="#9D63EA"/>
<path d="M185.726 68.7528C185.953 68.0363 186.328 67.3808 186.824 66.8327C187.321 66.2846 187.926 65.8573 188.598 65.581C189.331 65.2695 190.116 65.1154 190.908 65.1278C191.715 65.1138 192.516 65.2679 193.266 65.581C193.93 65.8651 194.524 66.3009 195.007 66.8564C195.493 67.4175 195.869 68.0733 196.114 68.7864C196.605 70.3593 196.605 72.0552 196.114 73.6281C195.871 74.3421 195.495 74.9982 195.007 75.5581C194.524 76.0771 193.945 76.4882 193.306 76.7665C192.556 77.0795 191.755 77.2336 190.948 77.2196C190.157 77.232 189.371 77.078 188.638 76.7665C187.976 76.4794 187.376 76.0572 186.873 75.5246C186.374 74.9734 185.996 74.3147 185.766 73.5946C185.242 72.0272 185.242 70.3202 185.766 68.7528H185.726ZM188.429 72.4366C188.498 72.8464 188.652 73.2357 188.878 73.5778C189.075 73.9225 189.351 74.2107 189.68 74.4169C190.059 74.6237 190.481 74.7248 190.908 74.7106C191.347 74.7283 191.784 74.6271 192.175 74.4169C192.499 74.2215 192.774 73.9483 192.977 73.6198C193.193 73.2828 193.341 72.9029 193.41 72.5037C193.571 71.6419 193.571 70.7559 193.41 69.894C193.339 69.4875 193.192 69.0996 192.977 68.7528C192.769 68.4307 192.495 68.1612 192.175 67.9641C191.779 67.7615 191.34 67.669 190.9 67.6955C190.473 67.6813 190.051 67.7825 189.672 67.9892C189.345 68.1981 189.07 68.4858 188.87 68.8284C188.646 69.1689 188.493 69.5549 188.421 69.9612C188.333 70.386 188.285 70.8188 188.277 71.2534C188.291 71.652 188.342 72.0482 188.429 72.4366Z" fill="#9D63EA"/>
</g>
<defs>
<clipPath id="clip0_2007_119">
<rect width="42.9076" height="42.9076" fill="white" transform="translate(0 44.2871)"/>
</clipPath>
<clipPath id="clip1_2007_119">
<rect width="147.378" height="42.9076" fill="white" transform="translate(52.6221 44.2871)"/>
</clipPath>
</defs>
</svg>
