<svg width="1280" height="535" viewBox="0 0 1280 535" fill="none" xmlns="http://www.w3.org/2000/svg">
<g clip-path="url(#clip0_477_2128)">
<g clip-path="url(#clip1_477_2128)">
<path d="M-2249 225.664L-2115.67 195.942C-1982.34 167.331 -1715.67 106.221 -1449.01 77.6099C-1182.34 47.888 -915.68 47.888 -649.016 77.6099C-382.352 106.221 -115.688 167.331 150.976 195.942C417.64 225.664 684.304 225.664 950.968 210.942C1217.63 195.109 1484.3 167.331 1617.63 151.498L1750.96 136.776V847.88H1617.63C1484.3 847.88 1217.63 847.88 950.968 847.88C684.304 847.88 417.64 847.88 150.976 847.88C-115.688 847.88 -382.352 847.88 -649.016 847.88C-915.68 847.88 -1182.34 847.88 -1449.01 847.88C-1715.67 847.88 -1982.34 847.88 -2115.67 847.88H-2249V225.664Z" fill="#FAF6FF"/>
</g>
</g>
<defs>
<clipPath id="clip0_477_2128">
<rect width="4000" height="888.88" fill="white" transform="translate(-2249 -193)"/>
</clipPath>
<clipPath id="clip1_477_2128">
<rect width="3999.96" height="888.88" fill="white" transform="translate(-2249 -41)"/>
</clipPath>
</defs>
</svg>
