<svg width="1280" height="636" viewBox="0 0 1280 636" fill="none" xmlns="http://www.w3.org/2000/svg">
<g clip-path="url(#clip0_477_2200)">
<g clip-path="url(#clip1_477_2200)">
<path d="M-2266.59 695.275L-2137.56 650.409C-2008.41 606.646 -1750.55 515.258 -1488.95 456.153C-1227.47 395.945 -962.581 365.261 -694.268 364.102C-426.083 361.839 -154.159 391.86 114.026 389.597C382.339 388.438 647.232 357.754 910.43 312.446C1173.5 266.034 1435.2 207.758 1565.82 176.688L1696.57 146.722L1778.4 853.102L1645.95 868.444C1513.51 883.786 1248.61 914.47 983.72 945.154C718.827 975.837 453.934 1006.52 189.041 1037.2C-75.8515 1067.89 -340.744 1098.57 -605.637 1129.26C-870.53 1159.94 -1135.42 1190.62 -1400.32 1221.31C-1665.21 1251.99 -1930.1 1282.67 -2062.55 1298.02L-2194.99 1313.36L-2266.59 695.275Z" fill="#FAF6FF"/>
</g>
</g>
<defs>
<clipPath id="clip0_477_2200">
<rect width="4000" height="888.88" fill="white" transform="translate(-2283 310.26) rotate(-6.60738)"/>
</clipPath>
<clipPath id="clip1_477_2200">
<rect width="3999.96" height="888.88" fill="white" transform="translate(-2265.51 461.251) rotate(-6.60738)"/>
</clipPath>
</defs>
</svg>
