<svg width="1280" height="655" viewBox="0 0 1280 655" fill="none" xmlns="http://www.w3.org/2000/svg">
<g clip-path="url(#clip0_626_2224)">
<g clip-path="url(#clip1_626_2224)">
<path d="M-2282 362.346L-2148.67 332.624C-2015.34 304.013 -1748.67 242.902 -1482.01 214.291C-1215.34 184.57 -948.68 184.57 -682.016 214.291C-415.352 242.902 -148.688 304.013 117.976 332.624C384.64 362.346 651.304 362.346 917.968 347.623C1184.63 331.79 1451.3 304.013 1584.63 288.18L1717.96 273.458V984.562H1584.63C1451.3 984.562 1184.63 984.562 917.968 984.562C651.304 984.562 384.64 984.562 117.976 984.562C-148.688 984.562 -415.352 984.562 -682.016 984.562C-948.68 984.562 -1215.34 984.562 -1482.01 984.562C-1748.67 984.562 -2015.34 984.562 -2148.67 984.562H-2282V362.346Z" fill="#FAF6FF"/>
</g>
</g>
<defs>
<clipPath id="clip0_626_2224">
<rect width="4000" height="888.88" fill="white" transform="translate(-2254 -22)"/>
</clipPath>
<clipPath id="clip1_626_2224">
<rect width="3999.96" height="888.88" fill="white" transform="translate(-2254 130)"/>
</clipPath>
</defs>
</svg>
